<?xml version="1.0" encoding="UTF-8"?>
<svg width="184px" height="48px" viewBox="0 0 184 48" version="1.1" xmlns="http://www.w3.org/2000/svg" xmlns:xlink="http://www.w3.org/1999/xlink">
    <!-- Generator: Sketch 59 (86127) - https://sketch.com -->
    <title>!temp/logo_placeholder</title>
    <desc>Created with Sketch.</desc>
    <g id="Symbols" stroke="none" stroke-width="1" fill="none" fill-rule="evenodd">
        <g id="!temp/logo_placeholder">
            <g>
                <path d="M81.0585023,10.7282122 L81.0585023,8.31415777 L73.425117,8.31415777 L73.425117,20.0206683 L76.1934477,20.0206683 L76.1934477,15.473648 L80.6817473,15.473648 L80.6817473,13.1422666 L76.1934477,13.1422666 L76.1934477,10.7282122 L81.0585023,10.7282122 Z M94.3650546,20.0206683 L94.3650546,17.6066138 L88.975819,17.6066138 L88.975819,15.1760248 L93.7917317,15.1760248 L93.7917317,12.9107819 L88.975819,12.9107819 L88.975819,10.7116776 L94.0702028,10.7116776 L94.0702028,8.31415777 L86.2730109,8.31415777 L86.2730109,20.0206683 L94.3650546,20.0206683 Z M107.720749,20.0206683 L107.720749,17.6066138 L102.331513,17.6066138 L102.331513,15.1760248 L107.147426,15.1760248 L107.147426,12.9107819 L102.331513,12.9107819 L102.331513,10.7116776 L107.425897,10.7116776 L107.425897,8.31415777 L99.6287051,8.31415777 L99.6287051,20.0206683 L107.720749,20.0206683 Z M123.812012,14.1343438 C123.812012,18.251464 120.50312,20.0206683 117.308892,20.0206683 L112.984399,20.0206683 L112.984399,8.31415777 L117.177847,8.31415777 C120.470359,8.31415777 123.812012,9.70306579 123.812012,14.1343438 Z M120.896256,14.1343438 C120.896256,11.5053393 119.045242,10.7282122 117.112324,10.7282122 L115.719969,10.7282122 L115.719969,17.5735446 L117.046802,17.5735446 C119.045242,17.5735446 120.896256,16.7468136 120.896256,14.1343438 Z M138.117785,16.6145367 C138.117785,19.1608681 135.906396,20.0206683 133.695008,20.0206683 L129.075663,20.0206683 L129.075663,8.31415777 L133.695008,8.31415777 C135.49688,8.31415777 137.642746,8.95900792 137.642746,11.3234585 C137.642746,12.6131588 136.872855,13.472959 135.74259,13.8532553 L135.74259,13.8863245 C137.069423,14.1178092 138.117785,15.0768171 138.117785,16.6145367 Z M134.939938,11.7037547 C134.939938,10.910093 134.333853,10.562866 133.154446,10.562866 L131.778471,10.562866 L131.778471,12.9769204 L133.285491,12.9769204 C134.333853,12.9769204 134.939938,12.5304857 134.939938,11.7037547 Z M135.316693,16.3499828 C135.316693,15.3744402 134.530421,15.0602825 133.334633,15.0602825 L131.778471,15.0602825 L131.778471,17.7388908 L133.351014,17.7388908 C134.235569,17.7388908 135.316693,17.4908715 135.316693,16.3499828 Z M154.356474,20.0206683 L151.24415,20.0206683 L150.343214,17.7223562 L145.854914,17.7223562 L145.00312,20.0206683 L141.956318,20.0206683 L146.821373,8.31415777 L149.540562,8.31415777 L154.356474,20.0206683 Z M149.573323,15.4571133 L148.131825,11.4392008 L146.657566,15.4571133 L149.573323,15.4571133 Z M168.645866,18.4002756 L166.696568,16.5483982 C166.205148,17.2428522 165.336973,17.7388908 164.23947,17.7388908 C162.306552,17.7388908 160.946958,16.2838443 160.946958,14.1508784 C160.946958,12.084051 162.339314,10.562866 164.288612,10.562866 C165.173167,10.562866 166.106864,10.910093 166.631045,11.6376163 L168.531201,9.71960041 C167.564743,8.5952463 165.812012,8 164.190328,8 C160.652106,8 157.900156,10.3975198 157.900156,14.1508784 C157.900156,17.8215639 160.570203,20.334826 164.141186,20.334826 C166.090484,20.334826 167.630265,19.5907682 168.645866,18.4002756 Z M184,20.0206683 L178.709048,13.7044437 L183.705148,8.31415777 L180.199688,8.31415777 L176.055382,13.0761281 L176.00624,13.0761281 L176.00624,8.31415777 L173.25429,8.31415777 L173.25429,20.0206683 L176.00624,20.0206683 L176.00624,14.6303824 L176.039002,14.6303824 L180.347114,20.0206683 L184,20.0206683 Z M84.400156,40 L81.2878315,40 L80.3868955,37.7016879 L75.8985959,37.7016879 L75.0468019,40 L72,40 L76.8650546,28.2934895 L79.5842434,28.2934895 L84.400156,40 Z M79.6170047,35.4364451 L78.175507,31.4185326 L76.701248,35.4364451 L79.6170047,35.4364451 Z M97.575663,31.8980365 C97.575663,34.6097141 95.3970359,35.5852566 92.9726989,35.5852566 L91.5803432,35.5852566 L91.5803432,40 L88.7792512,40 L88.7792512,28.2934895 L93.0382215,28.2934895 C95.5772231,28.2934895 97.575663,29.2194282 97.575663,31.8980365 Z M94.774571,31.9145711 C94.774571,30.790217 93.8081123,30.575267 92.8088924,30.575267 L91.5803432,30.575267 L91.5803432,33.3365484 L92.7597504,33.3365484 C93.8081123,33.3365484 94.774571,33.0223906 94.774571,31.9145711 Z M111.471919,31.8980365 C111.471919,34.6097141 109.293292,35.5852566 106.868955,35.5852566 L105.476599,35.5852566 L105.476599,40 L102.675507,40 L102.675507,28.2934895 L106.934477,28.2934895 C109.473479,28.2934895 111.471919,29.2194282 111.471919,31.8980365 Z M108.670827,31.9145711 C108.670827,30.790217 107.704368,30.575267 106.705148,30.575267 L105.476599,30.575267 L105.476599,33.3365484 L106.656006,33.3365484 C107.704368,33.3365484 108.670827,33.0223906 108.670827,31.9145711 Z" id="logo_placeholder__title" fill="#FFFFFF"></path>
                <g id="logo_placeholder__icon">
                    <rect id="logo_placeholder__border" fill="#EC1940" x="0" y="0" width="48" height="48" rx="2"></rect>
                    <polygon id="logo_placeholder__letter" fill="#FFFFFF" points="31.7966102 16.9491525 31.7966102 12 16 12 16 36 21.7288136 36 21.7288136 26.6779661 31.0169492 26.6779661 31.0169492 21.8983051 21.7288136 21.8983051 21.7288136 16.9491525"></polygon>
                </g>
            </g>
        </g>
    </g>
</svg>